<svg xmlns="http://www.w3.org/2000/svg" xmlns:xlink="http://www.w3.org/1999/xlink" width="1920" zoomAndPan="magnify" viewBox="0 0 1440 96.749999" height="129" preserveAspectRatio="xMidYMid meet" version="1.0"><defs><clipPath id="448e4cc905"><path d="M 1.855469 0 L 1438.144531 0 L 1438.144531 96.273438 L 1.855469 96.273438 Z M 1.855469 0 " clip-rule="nonzero"/></clipPath></defs><g clip-path="url(#448e4cc905)"><path fill="#c9732e" d="M 1515.941406 161.355469 C 1515.941406 164 1515.625 166.644531 1514.984375 169.285156 C 1514.347656 171.925781 1513.386719 174.5625 1512.113281 177.195312 C 1510.835938 179.824219 1509.242188 182.449219 1507.332031 185.066406 C 1505.421875 187.679688 1503.195312 190.285156 1500.65625 192.878906 C 1498.117188 195.472656 1495.265625 198.050781 1492.101562 200.617188 C 1488.9375 203.183594 1485.464844 205.730469 1481.6875 208.261719 C 1477.90625 210.792969 1473.824219 213.300781 1469.4375 215.792969 C 1465.050781 218.28125 1460.367188 220.746094 1455.382812 223.191406 C 1450.402344 225.632812 1445.125 228.050781 1439.558594 230.441406 C 1433.992188 232.832031 1428.140625 235.191406 1422.003906 237.523438 C 1415.867188 239.855469 1409.449219 242.15625 1402.757812 244.425781 C 1396.0625 246.695312 1389.097656 248.925781 1381.867188 251.125 C 1374.632812 253.324219 1367.136719 255.484375 1359.382812 257.609375 C 1351.625 259.734375 1343.617188 261.816406 1335.355469 263.863281 C 1327.097656 265.90625 1318.59375 267.910156 1309.851562 269.867188 C 1301.109375 271.828125 1292.132812 273.742188 1282.925781 275.613281 C 1273.71875 277.480469 1264.292969 279.304688 1254.644531 281.082031 C 1245 282.855469 1235.140625 284.582031 1225.078125 286.261719 C 1215.011719 287.9375 1204.75 289.566406 1194.292969 291.140625 C 1183.835938 292.714844 1173.195312 294.238281 1162.367188 295.707031 C 1151.542969 297.175781 1140.546875 298.589844 1129.378906 299.949219 C 1118.210938 301.308594 1106.886719 302.613281 1095.402344 303.859375 C 1083.917969 305.105469 1072.292969 306.292969 1060.523438 307.425781 C 1048.753906 308.554688 1036.855469 309.625 1024.824219 310.636719 C 1012.796875 311.648438 1000.652344 312.601562 988.394531 313.492188 C 976.132812 314.382812 963.773438 315.210938 951.316406 315.980469 C 938.855469 316.75 926.3125 317.453125 913.679688 318.097656 C 901.050781 318.738281 888.351562 319.316406 875.582031 319.832031 C 862.8125 320.347656 849.988281 320.800781 837.109375 321.1875 C 824.230469 321.578125 811.3125 321.902344 798.351562 322.160156 C 785.394531 322.417969 772.414062 322.613281 759.410156 322.742188 C 746.40625 322.875 733.394531 322.9375 720.375 322.9375 C 707.355469 322.9375 694.339844 322.875 681.335938 322.742188 C 668.332031 322.613281 655.351562 322.417969 642.394531 322.160156 C 629.4375 321.902344 616.519531 321.578125 603.640625 321.1875 C 590.761719 320.800781 577.9375 320.347656 565.167969 319.832031 C 552.394531 319.316406 539.695312 318.738281 527.066406 318.097656 C 514.4375 317.453125 501.890625 316.75 489.433594 315.980469 C 476.972656 315.210938 464.613281 314.382812 452.355469 313.492188 C 440.097656 312.601562 427.953125 311.648438 415.921875 310.636719 C 403.894531 309.625 391.996094 308.554688 380.222656 307.425781 C 368.453125 306.292969 356.828125 305.105469 345.34375 303.859375 C 333.863281 302.613281 322.539062 301.308594 311.371094 299.949219 C 300.203125 298.589844 289.207031 297.175781 278.378906 295.707031 C 267.554688 294.238281 256.910156 292.714844 246.453125 291.140625 C 235.996094 289.566406 225.734375 287.9375 215.671875 286.261719 C 205.605469 284.582031 195.75 282.855469 186.101562 281.082031 C 176.457031 279.304688 167.027344 277.480469 157.820312 275.613281 C 148.613281 273.742188 139.640625 271.828125 130.894531 269.867188 C 122.152344 267.910156 113.652344 265.90625 105.390625 263.863281 C 97.128906 261.816406 89.121094 259.734375 81.367188 257.609375 C 73.609375 255.484375 66.117188 253.324219 58.882812 251.125 C 51.648438 248.925781 44.683594 246.695312 37.992188 244.425781 C 31.296875 242.15625 24.882812 239.855469 18.746094 237.523438 C 12.605469 235.191406 6.753906 232.832031 1.1875 230.441406 C -4.378906 228.050781 -9.652344 225.632812 -14.636719 223.191406 C -19.617188 220.746094 -24.304688 218.28125 -28.691406 215.792969 C -33.074219 213.300781 -37.160156 210.792969 -40.9375 208.261719 C -44.71875 205.730469 -48.1875 203.183594 -51.351562 200.617188 C -54.515625 198.050781 -57.367188 195.472656 -59.910156 192.878906 C -62.449219 190.285156 -64.675781 187.679688 -66.585938 185.066406 C -68.496094 182.449219 -70.089844 179.824219 -71.363281 177.195312 C -72.640625 174.5625 -73.597656 171.925781 -74.238281 169.285156 C -74.875 166.644531 -75.195312 164 -75.195312 161.355469 C -75.195312 158.710938 -74.875 156.070312 -74.238281 153.425781 C -73.597656 150.785156 -72.640625 148.148438 -71.363281 145.519531 C -70.089844 142.886719 -68.496094 140.261719 -66.585938 137.648438 C -64.675781 135.03125 -62.449219 132.425781 -59.910156 129.832031 C -57.367188 127.238281 -54.515625 124.660156 -51.351562 122.09375 C -48.1875 119.527344 -44.71875 116.980469 -40.9375 114.449219 C -37.160156 111.921875 -33.074219 109.410156 -28.691406 106.921875 C -24.304688 104.429688 -19.617188 101.964844 -14.636719 99.519531 C -9.652344 97.078125 -4.378906 94.660156 1.1875 92.269531 C 6.753906 89.878906 12.605469 87.519531 18.746094 85.1875 C 24.882812 82.855469 31.296875 80.554688 37.992188 78.285156 C 44.683594 76.015625 51.648438 73.785156 58.882812 71.585938 C 66.117188 69.386719 73.609375 67.226562 81.367188 65.101562 C 89.121094 62.976562 97.128906 60.894531 105.390625 58.847656 C 113.652344 56.804688 122.152344 54.804688 130.894531 52.84375 C 139.640625 50.882812 148.613281 48.96875 157.820312 47.101562 C 167.027344 45.230469 176.457031 43.40625 186.101562 41.632812 C 195.75 39.855469 205.605469 38.128906 215.671875 36.449219 C 225.734375 34.773438 235.996094 33.148438 246.453125 31.570312 C 256.910156 29.996094 267.554688 28.472656 278.378906 27.003906 C 289.207031 25.535156 300.203125 24.121094 311.371094 22.761719 C 322.539062 21.402344 333.863281 20.097656 345.34375 18.851562 C 356.828125 17.605469 368.453125 16.417969 380.222656 15.285156 C 391.996094 14.15625 403.894531 13.085938 415.921875 12.074219 C 427.953125 11.0625 440.097656 10.109375 452.355469 9.21875 C 464.613281 8.328125 476.972656 7.5 489.433594 6.730469 C 501.890625 5.964844 514.4375 5.257812 527.066406 4.617188 C 539.695312 3.972656 552.394531 3.394531 565.167969 2.878906 C 577.9375 2.363281 590.761719 1.910156 603.640625 1.523438 C 616.519531 1.132812 629.4375 0.808594 642.394531 0.550781 C 655.351562 0.292969 668.332031 0.0976562 681.335938 -0.03125 C 694.339844 -0.160156 707.355469 -0.226562 720.375 -0.226562 C 733.394531 -0.226562 746.40625 -0.160156 759.410156 -0.03125 C 772.414062 0.0976562 785.394531 0.292969 798.351562 0.550781 C 811.3125 0.808594 824.230469 1.132812 837.109375 1.523438 C 849.988281 1.910156 862.8125 2.363281 875.582031 2.878906 C 888.351562 3.394531 901.050781 3.972656 913.679688 4.617188 C 926.3125 5.257812 938.855469 5.964844 951.316406 6.730469 C 963.773438 7.5 976.132812 8.328125 988.394531 9.21875 C 1000.652344 10.109375 1012.796875 11.0625 1024.824219 12.074219 C 1036.855469 13.085938 1048.753906 14.15625 1060.523438 15.285156 C 1072.292969 16.417969 1083.917969 17.605469 1095.402344 18.851562 C 1106.886719 20.097656 1118.210938 21.402344 1129.378906 22.761719 C 1140.546875 24.121094 1151.542969 25.535156 1162.367188 27.003906 C 1173.195312 28.472656 1183.835938 29.996094 1194.292969 31.570312 C 1204.75 33.148438 1215.011719 34.773438 1225.078125 36.449219 C 1235.140625 38.128906 1245 39.855469 1254.644531 41.632812 C 1264.292969 43.40625 1273.71875 45.230469 1282.925781 47.101562 C 1292.132812 48.96875 1301.109375 50.882812 1309.851562 52.84375 C 1318.59375 54.804688 1327.097656 56.804688 1335.355469 58.847656 C 1343.617188 60.894531 1351.625 62.976562 1359.382812 65.101562 C 1367.136719 67.226562 1374.632812 69.386719 1381.867188 71.585938 C 1389.097656 73.785156 1396.0625 76.015625 1402.757812 78.285156 C 1409.449219 80.554688 1415.867188 82.855469 1422.003906 85.1875 C 1428.140625 87.519531 1433.992188 89.878906 1439.558594 92.269531 C 1445.125 94.660156 1450.402344 97.078125 1455.382812 99.519531 C 1460.367188 101.964844 1465.050781 104.429688 1469.4375 106.921875 C 1473.824219 109.410156 1477.90625 111.921875 1481.6875 114.449219 C 1485.464844 116.980469 1488.9375 119.527344 1492.101562 122.09375 C 1495.265625 124.660156 1498.117188 127.238281 1500.65625 129.832031 C 1503.195312 132.425781 1505.421875 135.03125 1507.332031 137.648438 C 1509.242188 140.261719 1510.835938 142.886719 1512.113281 145.519531 C 1513.386719 148.148438 1514.347656 150.785156 1514.984375 153.425781 C 1515.625 156.070312 1515.941406 158.710938 1515.941406 161.355469 Z M 1515.941406 161.355469 " fill-opacity="1" fill-rule="nonzero"/><path stroke-linecap="butt" transform="matrix(0.748067, 0, 0, 0.748067, 1.855678, -0.226756)" fill="none" stroke-linejoin="miter" d="M 2023.997565 215.999678 C 2023.997565 96.707843 1547.848477 0.000258444 960.501332 0.000258444 C 373.143743 0.000258444 -103.000123 96.707843 -103.000123 215.999678 " stroke="#000000" stroke-width="10" stroke-opacity="1" stroke-miterlimit="4"/></g></svg>