<svg xmlns="http://www.w3.org/2000/svg" xmlns:xlink="http://www.w3.org/1999/xlink" width="1920" zoomAndPan="magnify" viewBox="0 0 1440 166.499995" height="222" preserveAspectRatio="xMidYMid meet" version="1.0"><defs><clipPath id="a864283363"><path d="M 2.15625 0 L 1437.84375 0 L 1437.84375 8 L 2.15625 8 Z M 2.15625 0 " clip-rule="nonzero"/></clipPath><clipPath id="fc22572c2f"><path d="M 2.15625 7 L 1437.84375 7 L 1437.84375 22 L 2.15625 22 Z M 2.15625 7 " clip-rule="nonzero"/></clipPath><clipPath id="276cb18e05"><path d="M 2.15625 21 L 1437.84375 21 L 1437.84375 35 L 2.15625 35 Z M 2.15625 21 " clip-rule="nonzero"/></clipPath><clipPath id="082cd0e53e"><path d="M 2.15625 34 L 1437.84375 34 L 1437.84375 166 L 2.15625 166 Z M 2.15625 34 " clip-rule="nonzero"/></clipPath></defs><g clip-path="url(#a864283363)"><path fill="#a5794b" d="M 2.15625 0.445312 L 1437.84375 0.445312 L 1437.84375 7.921875 L 2.15625 7.921875 Z M 2.15625 0.445312 " fill-opacity="1" fill-rule="nonzero"/></g><g clip-path="url(#fc22572c2f)"><path fill="#e0bc95" d="M 2.15625 7.921875 L 1437.84375 7.921875 L 1437.84375 21.382812 L 2.15625 21.382812 Z M 2.15625 7.921875 " fill-opacity="1" fill-rule="nonzero"/></g><g clip-path="url(#276cb18e05)"><path fill="#a5794b" d="M 2.15625 21.382812 L 1437.84375 21.382812 L 1437.84375 34.839844 L 2.15625 34.839844 Z M 2.15625 21.382812 " fill-opacity="1" fill-rule="nonzero"/></g><g clip-path="url(#082cd0e53e)"><path fill="#c9732e" d="M 2.15625 34.839844 L 1437.84375 34.839844 L 1437.84375 166.445312 L 2.15625 166.445312 Z M 2.15625 34.839844 " fill-opacity="1" fill-rule="nonzero"/></g></svg>